# xmcd
#
# Track frame offsets:
#	150
#	15532
#	25703
#	36000
#	48486
#	58752
#	72083
#	84125
#	96515
#	110586
#	123452
#	135462
#	148677
#
# Disc length: 2167 seconds
#
# Revision: 1
# Processed by: cddbd v1.5.2PL0 Copyright (c) Steve Scherf et al.
# Submitted via: EZCDAudioConverter 3.1.0.1
#
DISCID=ac08750d
DTITLE=Reverend Elvis - Desperation
DYEAR=2013
DGENRE=Death Country
TTITLE0=Dying Crapshooter Blues
TTITLE1=They Know What You Do
TTITLE2=I Cast A Lonesome Shadow
TTITLE3=Jezebel
TTITLE4=Knoxville Girl
TTITLE5=Teddyboy Boogie
TTITLE6=Cups Of Coffee
TTITLE7=Soon One Morning
TTITLE8=Highwayman
TTITLE9=Up And Down
TTITLE10=Mournin'
TTITLE11=I Don't Care If Tomorrow Never Comes
TTITLE12=Massakkar
EXTD=
EXTT0=
EXTT1=
EXTT2=
EXTT3=
EXTT4=
EXTT5=
EXTT6=
EXTT7=
EXTT8=
EXTT9=
EXTT10=
EXTT11=
EXTT12=
PLAYORDER=
